<svg class="icon" viewBox="0 0 1024 1024" xmlns="http://www.w3.org/2000/svg" width="200" height="200"><defs><style/></defs><path d="M1011.82 393.97c-2.425-19.294-14.66-36.163-36.595-40.96H972.8c-43.87-9.7-75.56-33.791-99.975-74.751-21.935-36.164-29.265-81.974-14.605-122.988 7.33-16.87 2.425-38.589-14.66-53.033A458.644 458.644 0 0 0 677.78 3.395C660.75-3.827 641.24.97 624.155 17.84 597.315 51.631 555.87 68.5 509.575 68.5c-41.5 0-80.465-19.294-114.58-53.032-19.51-19.295-39.02-16.87-53.68-12.073-63.38 26.517-117.005 57.883-163.3 96.472a45.487 45.487 0 0 0-17.085 52.978c12.18 45.811 7.275 89.25-14.66 127.785-19.51 33.792-56.05 60.308-99.92 72.327-2.48 0-2.48 0-4.905 2.425-14.605 7.222-24.36 19.294-31.69 36.163v2.426A483.651 483.651 0 0 0 0 492.813c0 31.313 2.425 67.477 9.755 96.472 2.425 19.24 14.605 36.11 36.594 40.96h2.426c43.87 9.593 75.56 33.738 99.974 74.698 21.936 36.164 29.211 81.974 14.606 122.988-7.33 16.869-2.425 38.535 14.605 53.032 46.35 43.386 102.4 77.124 168.26 98.843 2.425 0 4.85 2.372 9.7 2.372h7.33c12.235 0 26.84-4.797 39.02-16.87 26.84-31.312 68.285-50.607 114.58-50.607 41.5 0 80.465 19.295 114.635 53.033 9.7 9.647 21.935 16.869 34.115 16.869 4.85 0 12.18 0 17.085-2.425 63.38-26.517 117.005-57.83 163.3-96.418 17.085-9.647 24.415-33.738 17.085-53.032-12.18-45.81-7.275-89.196 14.66-127.73 19.51-33.793 56.05-60.363 99.92-72.382 2.48 0 2.48 0 4.905-2.37 14.605-7.277 24.36-19.295 31.69-36.164v-2.426a483.651 483.651 0 0 0 9.755-98.843c-2.425-33.738-4.85-67.53-12.18-98.842zm-502.3 265.163c-95.07 0-170.63-74.698-170.63-168.69 0-94.101 75.56-168.8 170.685-168.8 95.07 0 170.63 74.699 170.63 168.745 0 94.047-75.56 168.745-170.63 168.745z"/></svg>