<svg class="icon" viewBox="0 0 1024 1024" xmlns="http://www.w3.org/2000/svg" width="200" height="200"><defs><style/></defs><path d="M269 704H115c-28.2 0-51 22.8-51 51v154c0 28.2 22.8 51 51 51h154c28.2 0 51-22.8 51-51V755c0-28.2-22.8-51-51-51zm640 0H755c-28.2 0-51 22.8-51 51v154c0 28.2 22.8 51 51 51h154c28.2 0 51-22.8 51-51V755c0-28.2-22.8-51-51-51zm-320 0H435c-28.2 0-51 22.8-51 51v154c0 28.2 22.8 51 51 51h154c28.2 0 51-22.8 51-51V755c0-28.2-22.8-51-51-51zM393.5 448h237c40.6 0 73.5-32.9 73.5-73.5v-237c0-40.6-32.9-73.5-73.5-73.5h-237c-40.6 0-73.5 32.9-73.5 73.5v237c0 40.6 32.9 73.5 73.5 73.5zm377.9 64H544v-32h-64v32H252.6c-51.9 0-92.6 34.5-92.6 78.5V672h64v-81.5c0-5.1 10.8-14.5 28.6-14.5H480v96h64v-96h227.4c17.7 0 28.6 9.4 28.6 14.5V672h64v-81.5c0-44-40.7-78.5-92.6-78.5z"/></svg>