<?xml version="1.0" standalone="no"?><!DOCTYPE svg PUBLIC "-//W3C//DTD SVG 1.1//EN" "http://www.w3.org/Graphics/SVG/1.1/DTD/svg11.dtd"><svg t="1543571641501" class="icon" style="" viewBox="0 0 1024 1024" version="1.1" xmlns="http://www.w3.org/2000/svg" p-id="15969" xmlns:xlink="http://www.w3.org/1999/xlink" width="200" height="200"><defs><style type="text/css"></style></defs><path d="M624.816805 826.742349H131.294863c-10.484586 0-18.983858 8.499272-18.983858 18.982834s8.499272 18.982834 18.983858 18.982834h493.521942c10.483562 0 18.982834-8.499272 18.982833-18.982834s-8.499272-18.982834-18.982833-18.982834zM421.414818 672.716208c4.858336 0 9.716672-1.853232 13.423136-5.559698L542.406322 559.588142c7.41293-7.413954 7.41293-19.43232 0-26.847297-7.41293-7.41293-19.433343-7.41293-26.847297 0L407.992705 640.309213c-7.413954 7.413954-7.413954 19.43232 0 26.847297a18.921401 18.921401 0 0 0 13.422113 5.559698zM901.560721 163.042475c-7.41293-7.413954-19.433343-7.413954-26.847297 0L581.404067 456.350809c-7.41293 7.41293-7.41293 19.43232 0 26.846273 3.706465 3.707489 8.564801 5.560721 13.423136 5.560721s9.716672-1.853232 13.423137-5.560721l293.309357-293.309357c7.413954-7.41293 7.413954-19.43232 0.001024-26.84525z" fill="#c19b62" p-id="15970"></path></svg>