<svg class="icon" viewBox="0 0 1024 1024" xmlns="http://www.w3.org/2000/svg" width="48" height="48"><defs><style/></defs><path d="M460.16 709.504v-13.696c0-3.584.32-7.872.96-12.8H235.648a56.128 56.128 0 0 1-40.64-16.32 53.632 53.632 0 0 1-16.896-40.064c0-15.808 5.632-29.312 16.896-40.512a55.296 55.296 0 0 1 40.64-16.896h265.6a255.36 255.36 0 0 1 91.712-85.632 252.672 252.672 0 0 1 141.056-31.36c5.44.256 10.88.704 16.448 1.344v-136.96c.32-8.704-1.152-15.168-4.544-19.392-5.12-6.4-17.088-5.504-19.2-5.504H617.152c-17.024 0-31.616-3.84-43.84-11.456a98.112 98.112 0 0 1-29.632-28.224 122.496 122.496 0 0 1-16.832-36.864 142.272 142.272 0 0 1-5.504-37.376V89.216c.064-9.152-1.472-15.616-4.608-19.328-4.736-5.504-12.8-5.888-16-5.888H192c-8.768 0-64.32-5.76-96.832 28.928C62.72 127.616 64.064 183.232 64.064 192v514.048L64 756.992c0 8.704 1.6 51.648 25.216 75.136 23.552 23.424 57.152 23.04 72.96 23.04h17.088a26.176 26.176 0 0 0 2.56 0h323.968a248.704 248.704 0 0 1-45.632-145.664zM235.648 341.568H577.92a56.32 56.32 0 0 1 40.64 16.32 53.76 53.76 0 0 1 16.832 40.064 55.296 55.296 0 0 1-16.832 40.576 55.488 55.488 0 0 1-40.64 16.832H235.648a55.296 55.296 0 0 1-40.64-16.832 55.168 55.168 0 0 1-16.896-40.576c0-15.744 5.632-29.12 16.896-40.064a56.128 56.128 0 0 1 40.64-16.32z"/><path d="M750.464 233.408v-76.8c0-8.768-1.792-48.832-23.232-70.912C705.728 63.616 659.392 64 650.688 64h-71.936v101.12c0 17.472 6.656 34.944 20.032 48.32 13.44 13.248 30.912 19.968 48.384 19.968h103.296zM723.968 483.52c-130.176 0-235.776 101.952-235.776 227.712 0 125.76 105.6 227.712 235.776 227.712 130.24 0 235.84-101.952 235.84-227.712 0-125.76-105.6-227.712-235.84-227.712zM830.72 729.28l-146.048 94.08c-15.36 9.856-28.032 3.328-28.032-14.592v-195.2c0-17.856 12.608-24.32 28.032-14.4l146.048 94.08c15.36 9.856 15.36 26.112 0 36.032z"/></svg>