<svg class="icon" viewBox="0 0 1024 1024" xmlns="http://www.w3.org/2000/svg" width="200" height="200"><defs><style/></defs><path d="M297.8 996.536a30.12 30.12 0 0 1-.024-60.232h428.416a30.12 30.12 0 0 1 0 60.232H297.8zM873.408 27.464H150.592C84.056 27.464 30.12 81.4 30.12 147.936v556.272c0 66.536 53.936 120.472 120.472 120.472h722.824c66.536 0 120.472-53.936 120.472-120.472V147.936C993.88 81.4 939.944 27.464 873.408 27.464zM829.44 273.712L597.176 546.936c-1.504 1.808-1.504 1.808-3.136 3.376a42.176 42.176 0 0 1-59.608-1.656l-.024-.024-131.136-138.848-165.52 150.16a30.112 30.112 0 0 1-40.472-44.576l178.656-162.152a42.16 42.16 0 0 1 59.032 2.232l129.384 137.096L783.544 234.68a30.128 30.128 0 0 1 45.896 39.032z"/></svg>