<svg class="icon" viewBox="0 0 1024 1024" xmlns="http://www.w3.org/2000/svg" width="200" height="200"><defs><style/></defs><path d="M659.4 541.5c0-16.3-13.2-29.6-29.6-29.6h-59.1l63.5-67.7c5.9-4.9 9.3-12.1 9.3-19.8 0-7.7-3.4-14.9-9.3-19.8-12.8-11-31.8-11-44.6 0L525.8 461l-63.5-56.4c-12.8-11-31.8-11-44.6 0-5.9 4.9-9.3 12.1-9.3 19.8 0 7.7 3.4 14.9 9.3 19.8l64.4 67.7H423c-10.6 0-20.3 5.6-25.6 14.8-5.3 9.1-5.3 20.4 0 29.6 5.3 9.1 15 14.8 25.6 14.8h59.1v29.6H423c-10.6 0-20.3 5.6-25.6 14.8-5.3 9.1-5.3 20.4 0 29.6 5.3 9.1 15 14.8 25.6 14.8h59.1v29.6c0 19.2 22.8 29.6 44.3 29.6 21.6 0 44.3-10.3 44.3-29.6v-29.6h59.1c16.3 0 29.6-13.2 29.6-29.6.8-8.1-2-16.1-7.7-21.8-5.7-5.7-13.8-8.6-21.8-7.7h-59.1V571h59.1c16.3 0 29.5-13.2 29.5-29.5zm236.4-29.6H777.6v295.5c0 39.9-27.8 59.1-70.9 59.1H316.6c-43.1 0-70.9-19.2-70.9-59.1V511.9H127.4c-17.8-2.4-30.6-18.2-29.6-36.1-.2-11 4.1-21.7 11.8-29.6l329.2-266c43.6-31.8 102.7-31.8 146.3 0l329.2 266c7 7.6 10.9 17.5 10.9 27.8 0 23.3-4.7 35.2-29.6 36.1v1.8zm0 0"/></svg>