<?xml version="1.0" standalone="no"?><!DOCTYPE svg PUBLIC "-//W3C//DTD SVG 1.1//EN" "http://www.w3.org/Graphics/SVG/1.1/DTD/svg11.dtd"><svg t="1545636010012" class="icon" style="" viewBox="0 0 1024 1024" version="1.1" xmlns="http://www.w3.org/2000/svg" p-id="9643" xmlns:xlink="http://www.w3.org/1999/xlink" width="200" height="200"><defs><style type="text/css"></style></defs><path d="M1024 919.008a101.968 101.968 0 0 1-7.984 40.96 142.64 142.64 0 0 1-21.216 33.248 101.76 101.76 0 0 1-34.432 23.088 114.576 114.576 0 0 1-42.496 7.68H114.128a115.616 115.616 0 0 1-79.568-30.768 102.384 102.384 0 0 1-26.56-30.72 102.032 102.032 0 0 1-7.968-41.008V337.824a96.736 96.736 0 0 1 31.824-74.208A108.24 108.24 0 0 1 108.8 232.912h803.792a104.256 104.256 0 0 1 76.96 30.72 100.752 100.752 0 0 1 31.808 74.192v158.72H750.752a103.808 103.808 0 0 0-76.88 30.704 100.72 100.72 0 0 0-31.888 74.272 115.2 115.2 0 0 0 13.312 53.728 80.16 80.16 0 0 0 31.824 35.856 116.24 116.24 0 0 0 63.632 15.392h273.232v212.512zM859.488 176.64H310.448c42.4-23.008 84.832-43.488 122-63.952 34.512-17.936 66.32-33.328 100.784-51.2 31.808-17.92 58.512-30.704 76.928-41.008A156.64 156.64 0 0 1 684.48 0c19.008 0.448 37.808 3.92 55.648 10.24a146.72 146.72 0 0 1 45.136 33.328l74.24 133.072zM695.088 601.6c0.672-24.864 19.36-45.84 44.704-50.208 25.36-4.368 50.4 9.056 59.952 32.16 9.536 23.088 0.96 49.488-20.56 63.152-21.504 13.68-50.016 10.88-68.224-6.72a51.072 51.072 0 0 1-15.872-38.4z" p-id="9644"></path></svg>