<svg class="icon" viewBox="0 0 1024 1024" xmlns="http://www.w3.org/2000/svg" width="200" height="200"><defs><style/></defs><path d="M107.79 0h808.42A107.79 107.79 0 0 1 1024 107.79v808.42A107.79 107.79 0 0 1 916.21 1024H107.79A107.79 107.79 0 0 1 0 916.21V107.79A107.79 107.79 0 0 1 107.79 0zm336.842 229.053A26.947 26.947 0 0 0 417.684 256v13.474a26.947 26.947 0 0 0 26.948 26.947h363.79a26.947 26.947 0 0 0 26.946-26.947V256a26.947 26.947 0 0 0-26.947-26.947h-363.79zm0 256A26.947 26.947 0 0 0 417.684 512v13.474a26.947 26.947 0 0 0 26.948 26.947h363.79a26.947 26.947 0 0 0 26.946-26.947V512a26.947 26.947 0 0 0-26.947-26.947h-363.79zM256 835.368a67.368 67.368 0 1 0 0-134.736 67.368 67.368 0 0 0 0 134.736zm0-256a67.368 67.368 0 1 0 0-134.736 67.368 67.368 0 0 0 0 134.736zm188.632 161.685A26.947 26.947 0 0 0 417.684 768v13.474a26.947 26.947 0 0 0 26.948 26.947h363.79a26.947 26.947 0 0 0 26.946-26.947V768a26.947 26.947 0 0 0-26.947-26.947h-363.79zM220.483 231.235a26.947 26.947 0 1 0-36.756 39.41l46.565 43.427a26.947 26.947 0 0 0 39.236-2.655l75.452-92.254a26.947 26.947 0 1 0-41.7-34.115l-57.264 69.995-25.533-23.808z"/></svg>