<svg xmlns="http://www.w3.org/2000/svg" viewBox="0 0 14 14"><path d="M7.3 8.6c0-.3.1-.6.3-.8.3-.4.5-.8.6-1.3.4-.3.6-.7.6-1.2 0-.7-.1-.7-.1-.7.3-.8.4-3.6-1.5-3.3C6.9.7 5 .2 4.1 1.8c-.5.9-.6 1.9-.2 2.8 0 .1-.1-.1-.2.3 0 .4.1.9.3 1.2.1.1.2.2.3.2.1.5.3 1 .7 1.4.1.3-.1.7-.4.8-1.7.4-3.3 1.3-3.3 2.4v.8c.2 1.5 4.2 1.4 6.8 1.3.1-.1.1-.2.1-.3-.2-.2-.4-.4-.7-.5 0 0-.1 0-.1-.1-.1-.2-.1-.5-.1-.7V8.6z"/><path d="M11.8 7.8h-3c-.4 0-.7.3-.7.7v3.1c0 .1.1.3.2.4l1.7 1.2c.1.1.2.1.3.1.1 0 .2 0 .3-.1l1.7-1.1c.1-.1.2-.2.2-.4V8.5c0-.4-.2-.7-.6-.7h-.1zm.1 1.8l-.6.6.2.9c0 .1 0 .1-.1.1h-.1-.1l-.8-.4-.8.4h-.1-.1l-.1-.1.2-.9-.6-.6s-.1-.1 0-.2c0-.1.1-.1.1-.1l.9-.2.4-.8c0-.1.1-.1.2-.1 0 0 .1 0 .1.1l.4.8.9.2c.1 0 .1 0 .1.1-.1.1-.1.2-.1.2z"/></svg>