<svg xmlns="http://www.w3.org/2000/svg" viewBox="0 0 14 14"><path d="M5.6 9.5c.3-.1.5-.2.7-.3.1-.1.2-.1.2-.2s0-.1.1-.2v-.2-.1l-.1-.1-.1-.1c-.2-.1-.2-.2-.3-.3 0-.1-.1-.2-.1-.3 0-.1-.1-.3-.1-.4-.1 0-.1-.1-.2-.1 0 0-.1-.1-.1-.2-.1 0-.1-.1-.2-.3 0-.1-.1-.3-.1-.4 0-.1 0-.2.1-.3 0-.1.1-.2.2-.3 0-.3 0-.6.1-.9 0-.2.1-.5.2-.8.1-.2.2-.5.4-.7.1-.2.3-.4.5-.6.2-.2.4-.3.5-.4 0-.1-.1-.3-.1-.4 0-.1-.1-.3-.2-.4-.2-.3-.5-.5-.8-.6C5.8.7 5.4.6 5 .6h-.5c-.2 0-.4.1-.5.1-.2.2-.4.3-.6.4-.2.1-.3.3-.5.5-.1.2-.2.4-.3.7-.1.3-.1.5-.2.8v.8c-.1 0-.1.1-.1.2s-.1.2-.1.3c0 .1 0 .2.1.3 0 .2 0 .3.1.3 0 .1.1.1.1.2 0 0 .1.1.2.1 0 .1.1.2.1.3 0 .1.1.2.1.3 0 .1.1.1.2.2l.3.3c.1.1.2.2.2.4v.3c0 .1 0 .2-.1.3 0 .1-.1.2-.2.3 0 0-.1.1-.3.2-.2.1-.4.2-.7.3-.2.1-.5.2-.7.2-.3.1-.5.2-.6.4-.2.1-.3.3-.4.6-.1.5-.1.9 0 1.2 0 .3.1.5.2.5s.2.1.4.1.4.1.7.1c.3 0 .6.1.9.1.3 0 .7.1 1 .1v-.3-.3c0-.3.2-.5.3-.7.2-.2.4-.3.6-.4.4-.1.7-.2.9-.3z"/><path d="M13.5 11.6c0-.2 0-.3-.1-.4-.1-.2-.2-.3-.3-.5-.2-.1-.3-.2-.5-.3-.2-.1-.4-.1-.6-.2-.2-.1-.4-.1-.6-.2-.2-.1-.4-.2-.5-.3l-.3-.3c-.1-.1-.1-.2-.1-.3v-.3c0-.1 0-.2.1-.2 0-.1.1-.1.1-.2l.1-.1c.1 0 .1-.1.2-.2.1 0 .1-.1.2-.2s.1-.2.1-.3c0-.1.1-.2.1-.3.1 0 .2-.1.2-.1l.2-.2c.1-.1.1-.2.1-.4v-.3c0-.1 0-.1-.1-.2 0-.1-.1-.1-.1-.1 0-.3 0-.6-.1-.9 0-.2-.1-.5-.2-.8-.1-.3-.2-.5-.4-.8-.2-.2-.4-.4-.8-.6-.3-.2-.6-.3-1.1-.3h-.5c-.2 0-.4.1-.5.1-.2.1-.4.3-.6.4-.1.1-.3.3-.4.5-.2.2-.3.4-.4.7 0 .3-.1.5-.1.8v.8c-.1.1-.2.1-.2.2s-.1.2-.1.3c0 .1 0 .2.1.3 0 .1.1.2.1.3 0 .1.1.1.1.2 0 0 .1.1.2.1 0 .1.1.2.1.3 0 .1.1.2.1.3l.2.2.3.3c.1.1.2.2.2.4v.3c0 .1 0 .2-.1.3 0 .1-.1.2-.2.3 0 0-.1.1-.3.2-.2.1-.4.2-.7.3-.3.1-.5.1-.7.2l-.6.3c-.2.1-.3.3-.3.6-.1.5-.1.9 0 1.2 0 .3.1.5.2.5 0 0 .1.1.3.1.2 0 .4.1.6.1.2 0 .5.1.8.1.3 0 .6.1.9.1.3 0 .6 0 .9.1h1.4c.3 0 .6 0 .9-.1.3 0 .6-.1.9-.1.3 0 .6-.1.8-.1.2 0 .5-.1.6-.1.2-.1.3-.1.3-.2.1-.1.1-.2.1-.3v-.5-.5z"/></svg>